<svg width="17" height="9" viewBox="0 0 17 9" fill="none" xmlns="http://www.w3.org/2000/svg">
<path d="M8.97711 7.92789L8.97706 7.92793C8.84848 8.03921 8.67672 8.1 8.49997 8.1C8.32338 8.1 8.15137 8.03946 8.02287 7.92789L8.97711 7.92789ZM8.97711 7.92789L15.8959 1.93291L15.8959 1.93289C16.1685 1.6965 16.168 1.30698 15.8945 1.0711L15.8945 1.07108C15.6296 0.842735 15.2057 0.843312 14.9414 1.07226L14.9414 1.07226L8.49997 6.65365L2.05853 1.07206L2.05852 1.07204C1.79425 0.843137 1.3706 0.84256 1.10567 1.07086L1.10563 1.07089C0.970778 1.18721 0.9 1.34315 0.9 1.50247C0.9 1.66135 0.9703 1.81672 1.10427 1.93287L1.10429 1.93288L8.02278 7.92781L8.97711 7.92789Z" fill="#005889" stroke="#005889" stroke-width="0.2"/>
</svg>
