<svg width="13" height="18" viewBox="0 0 13 18" fill="none" xmlns="http://www.w3.org/2000/svg">
<path d="M6.13616 14.7803C6.1363 14.7805 6.13644 14.7806 6.13658 14.7807C6.15391 14.798 6.17216 14.8144 6.19111 14.83C6.19979 14.8371 6.20897 14.8433 6.2179 14.85C6.22855 14.858 6.23899 14.8663 6.25006 14.8737C6.26075 14.8808 6.27182 14.887 6.28279 14.8936C6.29285 14.8996 6.30266 14.9059 6.31299 14.9114C6.32417 14.9174 6.33567 14.9224 6.34709 14.9278C6.35785 14.9329 6.36847 14.9383 6.37951 14.9429C6.39058 14.9474 6.4019 14.9511 6.41315 14.9552C6.425 14.9594 6.43667 14.9639 6.44877 14.9676C6.46002 14.971 6.47144 14.9735 6.48283 14.9764C6.49517 14.9795 6.50737 14.9829 6.51996 14.9854C6.53314 14.988 6.54643 14.9896 6.55968 14.9915C6.57062 14.993 6.58141 14.9951 6.59248 14.9962C6.6417 15.0011 6.69131 15.0011 6.74053 14.9962C6.7516 14.9951 6.76239 14.9931 6.77333 14.9915C6.78658 14.9896 6.79987 14.988 6.81306 14.9854C6.82564 14.9829 6.83784 14.9795 6.85018 14.9764C6.86154 14.9735 6.873 14.971 6.88425 14.9676C6.89634 14.9639 6.90805 14.9594 6.91986 14.9552C6.93111 14.9511 6.94243 14.9474 6.9535 14.9429C6.96454 14.9383 6.97516 14.9329 6.98592 14.9278C6.99734 14.9224 7.00884 14.9174 7.02002 14.9114C7.03036 14.9059 7.04016 14.8995 7.05022 14.8936C7.06119 14.887 7.07226 14.8808 7.08295 14.8737C7.09402 14.8663 7.10446 14.858 7.11512 14.85C7.12405 14.8434 7.13322 14.8371 7.14191 14.83C7.16086 14.8144 7.1791 14.798 7.19643 14.7807C7.19657 14.7806 7.19671 14.7805 7.19686 14.7803L12.4468 9.53033C12.7397 9.23745 12.7397 8.76256 12.4468 8.46967C12.154 8.17678 11.6791 8.17678 11.3862 8.46967L7.41648 12.4393V0.749988C7.41648 0.335777 7.0807 0 6.66649 0C6.25228 0 5.9165 0.335777 5.9165 0.749988V12.4393L1.94683 8.46967C1.65395 8.17678 1.17906 8.17678 0.886169 8.46967C0.593282 8.76256 0.593282 9.23745 0.886169 9.53033L6.13616 14.7803Z" fill="#005889"/>
<path d="M11.9165 16.5H1.41649C1.00228 16.5 0.666504 16.8358 0.666504 17.25C0.666504 17.6642 1.00228 18 1.41649 18H11.9165C12.3307 18 12.6665 17.6642 12.6665 17.25C12.6665 16.8358 12.3307 16.5 11.9165 16.5Z" fill="#005889"/>
</svg>
